<svg fill="{{ .fill }}" width="{{ .width }}" height="{{ .height }}" viewBox="0 0 72 72" version="1.1" xmlns="http://www.w3.org/2000/svg" xmlns:xlink="http://www.w3.org/1999/xlink">
    <!-- Generator: Sketch 49.2 (51160) - http://www.bohemiancoding.com/sketch -->
    <title>youtube</title>
    <desc>Created with Sketch.</desc>
    <defs></defs>
    <g id="Page-1" stroke="none" stroke-width="1" fill="none" fill-rule="evenodd">
        <g id="Social-Icons---Rounded-Black" transform="translate(-488.000000, -1163.000000)">
            <g id="youtube" transform="translate(488.000000, 1163.000000)">
                <!-- YouTube logo -->
                <path d="M28,20 L40,20 C44.418278,20 48,21.981722 48,24 L48,38 C48,42.018278 44.418278,46 40,46 L36,58 C31.581722,58 26.381242,53.5 22,50 L18,30 C12.681578,18 6.999998,2 0,2 L2,0 C3.618021e-16,0 -4.210078e-16,1.580018 0,1.580018 Z" fill="{{ .fill }}"></path>
                <!-- YouTube play button -->
                <path d="M36,22 L40,26 L34,26 L34,30 C34,34 32,38 30,38 L30,42 C30,46 32,50 34,50 L34,54 C36.218121,54 41.219212,54 45.999912,53.818318 L48,56 C52.179191,56 55.998988,54 60,50 L66,26 L60,22 Z M20,16 L14,12 L10,8 L14,8 C17.5,8 20.499988,9.5 21.999912,11.000018 L21.999912,18 C21.999912,20.50002 19.998968,22 16,22 Z M40,28 L34,26 L30,24 L34,24 C38.218121,24 42.219212,26 45.999912,27 L48,29 C52.179191,29 55.998988,27 60,23 L66,9 L60,6 Z M22,20 L18,14 L14,10 L18,10 C21.5,10 24.499988,11.5 25.999912,13.000018 L25.999912,20 C25.999912,22.50002 23.998968,24 20,24 Z" fill="#FFFFFF"></path>
            </g>
        </g>
    </g>
</svg>